<svg xmlns="http://www.w3.org/2000/svg" viewBox="0 0 128 128">
  <defs>
    <clipPath id="indo-mask">
      <path d="M29 52c6-5 15-8 23-6 5 1 8 4 11 6 3 1 7-2 10-5 4-3 10-6 18-4 10 2 16 11 14 16-2 6-11 10-17 13-5 3-7 8-11 12-5 4-12 7-19 7-9 1-15-3-20-6-5-4-9-7-13-11-3-3-5-9-3-11 2-4 5-8 7-11z" />
    </clipPath>
  </defs>
  <circle cx="64" cy="64" r="60" fill="#0f294a" stroke="#76b5d9" stroke-width="6" />
  <g clip-path="url(#indo-mask)">
    <circle cx="64" cy="64" r="48" fill="#123457" />
    <path fill="#cbe6ff" d="M18 48c8-7 20-12 32-10 12 3 18 11 22 12 5 2 11-6 18-10s18-5 24 1c6 5 7 13 2 18-4 5-12 8-18 11-7 4-10 9-14 13-5 4-12 8-21 8-10 0-20-5-25-9-6-4-11-9-17-15-5-6-9-12-5-17z" />
  </g>
  <circle cx="64" cy="64" r="42" fill="none" stroke="#b7ddff" stroke-width="4" stroke-dasharray="6 6" opacity="0.6" />
</svg>
